<svg xmlns="http://www.w3.org/2000/svg" width="31.042" height="31.042" viewBox="0 0 31.042 31.042">
  <g id="OS" transform="translate(-387 -360)">
    <circle id="Ellipse_1163" data-name="Ellipse 1163" cx="15.521" cy="15.521" r="15.521" transform="translate(387 360)" fill="#a4d09f"/>
    <path id="Path_37350" data-name="Path 37350" d="M4.5.06A3.78,3.78,0,0,1,2.832-.3a4,4,0,0,1-1.284-.978A4.558,4.558,0,0,1,.714-2.67,4.443,4.443,0,0,1,.42-4.26,4.308,4.308,0,0,1,.732-5.886,4.567,4.567,0,0,1,1.6-7.266a4.125,4.125,0,0,1,1.3-.96A3.761,3.761,0,0,1,4.524-8.58a3.688,3.688,0,0,1,1.662.372,4.024,4.024,0,0,1,1.284,1A4.721,4.721,0,0,1,8.3-5.82a4.363,4.363,0,0,1,.294,1.572,4.382,4.382,0,0,1-.306,1.626,4.473,4.473,0,0,1-.858,1.38,4.047,4.047,0,0,1-1.3.954A3.815,3.815,0,0,1,4.5.06ZM1.788-4.26A3.588,3.588,0,0,0,1.98-3.1a3.239,3.239,0,0,0,.546,1,2.567,2.567,0,0,0,.858.69,2.487,2.487,0,0,0,1.128.252,2.446,2.446,0,0,0,1.152-.264A2.515,2.515,0,0,0,6.51-2.13a3.353,3.353,0,0,0,.522-1.008,3.635,3.635,0,0,0,.18-1.122,3.638,3.638,0,0,0-.186-1.158,3.094,3.094,0,0,0-.546-1,2.648,2.648,0,0,0-.858-.69,2.423,2.423,0,0,0-1.11-.252,2.446,2.446,0,0,0-1.152.264,2.606,2.606,0,0,0-.852.708,3.319,3.319,0,0,0-.534,1A3.51,3.51,0,0,0,1.788-4.26ZM15.012-6.516a1.843,1.843,0,0,0-.348-.282,3.381,3.381,0,0,0-.54-.282,4.131,4.131,0,0,0-.672-.216,3.264,3.264,0,0,0-.744-.084,2.052,2.052,0,0,0-1.248.311,1.022,1.022,0,0,0-.408.861.876.876,0,0,0,.228.64,1.722,1.722,0,0,0,.7.389q.468.155,1.176.335a8.617,8.617,0,0,1,1.5.484,2.315,2.315,0,0,1,.972.748A2.063,2.063,0,0,1,15.96-2.38a2.4,2.4,0,0,1-.24,1.112,2.02,2.02,0,0,1-.672.76,3.039,3.039,0,0,1-1,.431A5.105,5.105,0,0,1,12.84.06a6.158,6.158,0,0,1-1.266-.132,5.77,5.77,0,0,1-1.2-.39,5.222,5.222,0,0,1-1.05-.63l.612-1.152a2.653,2.653,0,0,0,.45.342,4.929,4.929,0,0,0,.684.354,5.455,5.455,0,0,0,.852.282,3.918,3.918,0,0,0,.942.114,2.24,2.24,0,0,0,1.23-.28.907.907,0,0,0,.426-.805.9.9,0,0,0-.276-.688,2.221,2.221,0,0,0-.8-.437q-.528-.18-1.26-.359a8.384,8.384,0,0,1-1.4-.5,2.033,2.033,0,0,1-.846-.694A1.921,1.921,0,0,1,9.648-6a2.4,2.4,0,0,1,.408-1.418,2.5,2.5,0,0,1,1.11-.874,4.06,4.06,0,0,1,1.578-.293,4.59,4.59,0,0,1,1.092.126,4.925,4.925,0,0,1,.966.342,5.022,5.022,0,0,1,.822.492Z" transform="translate(394.521 380.021)" fill="#172b4d"/>
  </g>
</svg>
