<svg xmlns="http://www.w3.org/2000/svg" width="15" height="15" viewBox="0 0 15 15">
  <path id="calendar-clock_1_" data-name="calendar-clock (1)" d="M10.625,6.274A4.363,4.363,0,1,0,15,10.625,4.38,4.38,0,0,0,10.625,6.274Zm0,7.476a3.113,3.113,0,1,1,3.125-3.125A3.117,3.117,0,0,1,10.625,13.75Zm1.067-2.942a.625.625,0,1,1-.884.884l-.625-.625A.624.624,0,0,1,10,10.625V9.375a.625.625,0,1,1,1.25,0v.991ZM15,4.375v1.25a.625.625,0,0,1-1.25,0V4.375A1.877,1.877,0,0,0,11.875,2.5H3.125A1.877,1.877,0,0,0,1.25,4.375V5H6.875a.625.625,0,1,1,0,1.25H1.25v5.625A1.877,1.877,0,0,0,3.125,13.75h2.5a.625.625,0,1,1,0,1.25h-2.5A3.129,3.129,0,0,1,0,11.875v-7.5A3.129,3.129,0,0,1,3.125,1.25H3.75V.625A.625.625,0,1,1,5,.625V1.25h5V.625a.625.625,0,1,1,1.25,0V1.25h.625A3.129,3.129,0,0,1,15,4.375Z" fill="#172b4d"/>
</svg>
