<svg xmlns="http://www.w3.org/2000/svg" width="31.042" height="31.041" viewBox="0 0 31.042 31.041">
  <g id="OB" transform="translate(-387 -360)">
    <circle id="Ellipse_1163" data-name="Ellipse 1163" cx="15.521" cy="15.521" r="15.521" transform="translate(387 360)" fill="#a7b4e5"/>
    <path id="Path_37348" data-name="Path 37348" d="M4.5.06A3.78,3.78,0,0,1,2.832-.3a4,4,0,0,1-1.284-.978A4.558,4.558,0,0,1,.714-2.67,4.443,4.443,0,0,1,.42-4.26,4.308,4.308,0,0,1,.732-5.886,4.567,4.567,0,0,1,1.6-7.266a4.125,4.125,0,0,1,1.3-.96A3.761,3.761,0,0,1,4.524-8.58a3.688,3.688,0,0,1,1.662.372,4.024,4.024,0,0,1,1.284,1A4.721,4.721,0,0,1,8.3-5.82a4.363,4.363,0,0,1,.294,1.572,4.382,4.382,0,0,1-.306,1.626,4.473,4.473,0,0,1-.858,1.38,4.047,4.047,0,0,1-1.3.954A3.815,3.815,0,0,1,4.5.06ZM1.788-4.26A3.588,3.588,0,0,0,1.98-3.1a3.239,3.239,0,0,0,.546,1,2.567,2.567,0,0,0,.858.69,2.487,2.487,0,0,0,1.128.252,2.446,2.446,0,0,0,1.152-.264A2.515,2.515,0,0,0,6.51-2.13a3.353,3.353,0,0,0,.522-1.008,3.635,3.635,0,0,0,.18-1.122,3.638,3.638,0,0,0-.186-1.158,3.094,3.094,0,0,0-.546-1,2.648,2.648,0,0,0-.858-.69,2.423,2.423,0,0,0-1.11-.252,2.446,2.446,0,0,0-1.152.264,2.606,2.606,0,0,0-.852.708,3.319,3.319,0,0,0-.534,1A3.51,3.51,0,0,0,1.788-4.26ZM16.68-2.2a1.96,1.96,0,0,1-.354,1.176,2.275,2.275,0,0,1-.954.756A3.242,3.242,0,0,1,14.052,0H9.984V-8.52h4.392a1.719,1.719,0,0,1,1.038.318,2.089,2.089,0,0,1,.672.816,2.413,2.413,0,0,1,.234,1.038A2.286,2.286,0,0,1,16-5.178a1.941,1.941,0,0,1-.906.81,2.165,2.165,0,0,1,1.158.786A2.249,2.249,0,0,1,16.68-2.2ZM15.3-2.448a1.418,1.418,0,0,0-.15-.654,1.322,1.322,0,0,0-.408-.48,1.009,1.009,0,0,0-.606-.186H11.328v2.6h2.724a1.2,1.2,0,0,0,.642-.174,1.248,1.248,0,0,0,.444-.468A1.308,1.308,0,0,0,15.3-2.448ZM11.328-7.356v2.508H13.8a1.124,1.124,0,0,0,.6-.162,1.181,1.181,0,0,0,.42-.444,1.3,1.3,0,0,0,.156-.642,1.419,1.419,0,0,0-.144-.654,1.14,1.14,0,0,0-.39-.444,1.013,1.013,0,0,0-.57-.162Z" transform="translate(393.521 380.021)" fill="#172b4d"/>
  </g>
</svg>
